<svg xmlns="http://www.w3.org/2000/svg" viewBox="0 0 200 200" fill="none">
  <defs>
    <linearGradient id="grad1" x1="0%" y1="0%" x2="100%" y2="100%">
      <stop offset="0%" style="stop-color:#1e40af"/>
      <stop offset="100%" style="stop-color:#3b82f6"/>
    </linearGradient>
  </defs>
  
  <!-- Background circle -->
  <circle cx="100" cy="100" r="95" fill="url(#grad1)"/>
  
  <!-- Person silhouette - Male professional -->
  <g transform="translate(40, 25)">
    <!-- Hair -->
    <path d="M25 50 Q25 25 60 20 Q95 25 95 50 Q95 40 60 42 Q25 40 25 50" fill="#2d2319"/>
    
    <!-- Face -->
    <ellipse cx="60" cy="65" rx="35" ry="40" fill="#e8c4a0"/>
    
    <!-- Eyes -->
    <ellipse cx="45" cy="60" rx="5" ry="3" fill="#1e293b"/>
    <ellipse cx="75" cy="60" rx="5" ry="3" fill="#1e293b"/>
    
    <!-- Eyebrows -->
    <path d="M38 52 Q45 48 52 52" stroke="#2d2319" stroke-width="2.5" fill="none"/>
    <path d="M68 52 Q75 48 82 52" stroke="#2d2319" stroke-width="2.5" fill="none"/>
    
    <!-- Nose -->
    <path d="M60 62 L57 75 L63 75" stroke="#d4a880" stroke-width="2" fill="none"/>
    
    <!-- Smile -->
    <path d="M48 85 Q60 92 72 85" stroke="#c9967a" stroke-width="2" fill="none"/>
    
    <!-- Neck -->
    <rect x="48" y="102" width="24" height="22" fill="#e8c4a0"/>
    
    <!-- Suit -->
    <path d="M15 175 L15 125 Q35 110 60 110 Q85 110 105 125 L105 175" fill="#334155"/>
    
    <!-- Shirt and tie -->
    <path d="M48 110 L60 130 L72 110" fill="white"/>
    <path d="M56 115 L60 160 L64 115" fill="#1e40af"/>
  </g>
</svg>