<svg xmlns="http://www.w3.org/2000/svg" viewBox="0 0 200 200" fill="none">
  <defs>
    <linearGradient id="grad1" x1="0%" y1="0%" x2="100%" y2="100%">
      <stop offset="0%" style="stop-color:#1e40af"/>
      <stop offset="100%" style="stop-color:#3b82f6"/>
    </linearGradient>
  </defs>
  
  <!-- Background circle -->
  <circle cx="100" cy="100" r="95" fill="url(#grad1)"/>
  
  <!-- Person silhouette - Female professional -->
  <g transform="translate(40, 25)">
    <!-- Hair -->
    <ellipse cx="60" cy="50" rx="42" ry="40" fill="#1e293b"/>
    <path d="M18 55 Q15 90 25 110 L30 80 Q22 70 18 55" fill="#1e293b"/>
    <path d="M102 55 Q105 90 95 110 L90 80 Q98 70 102 55" fill="#1e293b"/>
    
    <!-- Face -->
    <ellipse cx="60" cy="68" rx="32" ry="36" fill="#deb896"/>
    
    <!-- Eyes -->
    <ellipse cx="47" cy="62" rx="4" ry="3" fill="#1e293b"/>
    <ellipse cx="73" cy="62" rx="4" ry="3" fill="#1e293b"/>
    
    <!-- Eyebrows -->
    <path d="M40 55 Q47 52 54 55" stroke="#1e293b" stroke-width="2" fill="none"/>
    <path d="M66 55 Q73 52 80 55" stroke="#1e293b" stroke-width="2" fill="none"/>
    
    <!-- Nose -->
    <path d="M60 65 L58 75 L62 75" stroke="#c9a07a" stroke-width="2" fill="none"/>
    
    <!-- Smile -->
    <path d="M50 86 Q60 94 70 86" stroke="#b8957a" stroke-width="2" fill="none"/>
    
    <!-- Neck -->
    <rect x="48" y="100" width="24" height="18" fill="#deb896"/>
    
    <!-- Blazer -->
    <path d="M18 175 L18 128 Q38 112 60 112 Q82 112 102 128 L102 175" fill="#be185d"/>
    
    <!-- Blouse collar -->
    <path d="M45 112 L60 125 L75 112" fill="white"/>
    <ellipse cx="60" cy="118" rx="4" ry="4" fill="#f8f8f8"/>
  </g>
</svg>