<svg xmlns="http://www.w3.org/2000/svg" viewBox="0 0 200 200" fill="none">
  <defs>
    <linearGradient id="grad1" x1="0%" y1="0%" x2="100%" y2="100%">
      <stop offset="0%" style="stop-color:#1e40af"/>
      <stop offset="100%" style="stop-color:#3b82f6"/>
    </linearGradient>
  </defs>
  
  <!-- Background circle -->
  <circle cx="100" cy="100" r="90" fill="#eff6ff"/>
  
  <!-- Certificate/Award symbol -->
  <g transform="translate(35, 30)">
    <!-- Certificate -->
    <rect x="10" y="10" width="110" height="85" rx="6" fill="url(#grad1)"/>
    <rect x="18" y="18" width="94" height="69" rx="4" fill="white"/>
    
    <!-- Seal -->
    <circle cx="65" cy="50" r="20" fill="#fbbf24"/>
    <circle cx="65" cy="50" r="14" fill="#f59e0b"/>
    <path d="M58 50 L62 54 L72 44" stroke="white" stroke-width="3" fill="none" stroke-linecap="round" stroke-linejoin="round"/>
    
    <!-- Lines -->
    <rect x="30" y="78" width="70" height="4" rx="2" fill="#e2e8f0"/>
    
    <!-- Ribbon -->
    <path d="M55 95 L55 130 L65 120 L75 130 L75 95" fill="#dc2626"/>
  </g>
  
  <!-- Star accent -->
  <path d="M155 35 L158 43 L167 43 L160 48 L163 57 L155 51 L147 57 L150 48 L143 43 L152 43 Z" fill="#fbbf24"/>
</svg>