<svg xmlns="http://www.w3.org/2000/svg" viewBox="0 0 200 200" fill="none">
  <defs>
    <linearGradient id="grad1" x1="0%" y1="0%" x2="100%" y2="100%">
      <stop offset="0%" style="stop-color:#1e40af"/>
      <stop offset="100%" style="stop-color:#3b82f6"/>
    </linearGradient>
  </defs>
  
  <!-- Background circle -->
  <circle cx="100" cy="100" r="90" fill="#eff6ff"/>
  
  <!-- Puzzle/Custom solutions symbol -->
  <g transform="translate(40, 40)">
    <!-- Puzzle piece 1 -->
    <path d="M10 50 L10 10 L50 10 L50 25 Q60 25 60 35 Q60 45 50 45 L50 50 Z" fill="url(#grad1)"/>
    
    <!-- Puzzle piece 2 -->
    <path d="M50 10 L50 25 Q40 25 40 35 Q40 45 50 45 L50 50 L90 50 L90 65 Q80 65 80 75 Q80 85 90 85 L90 90 L50 90 L50 50" fill="#3b82f6"/>
    
    <!-- Puzzle piece 3 -->
    <path d="M50 90 L50 50 L10 50 L10 90 L25 90 Q25 100 35 100 Q45 100 45 90 Z" fill="#60a5fa"/>
    
    <!-- Puzzle piece 4 -->
    <path d="M90 50 L110 50 L110 90 L90 90 L90 85 Q100 85 100 75 Q100 65 90 65 Z" fill="#93c5fd"/>
  </g>
  
  <!-- Lightbulb accent -->
  <g transform="translate(140, 25)">
    <path d="M20 5 C10 5 5 15 5 22 C5 28 10 33 15 35 L15 40 L25 40 L25 35 C30 33 35 28 35 22 C35 15 30 5 20 5" fill="#fbbf24"/>
    <rect x="15" y="40" width="10" height="3" fill="#f59e0b"/>
    <rect x="17" y="43" width="6" height="2" fill="#f59e0b"/>
  </g>
</svg>