<svg xmlns="http://www.w3.org/2000/svg" viewBox="0 0 800 400" fill="none">
  <defs>
    <linearGradient id="grad1" x1="0%" y1="0%" x2="100%" y2="100%">
      <stop offset="0%" style="stop-color:#1e40af"/>
      <stop offset="100%" style="stop-color:#3b82f6"/>
    </linearGradient>
    <linearGradient id="grad2" x1="0%" y1="0%" x2="100%" y2="100%">
      <stop offset="0%" style="stop-color:#60a5fa"/>
      <stop offset="100%" style="stop-color:#93c5fd"/>
    </linearGradient>
  </defs>
  
  <!-- Background -->
  <rect width="800" height="400" fill="url(#grad1)"/>
  
  <!-- Abstract shapes -->
  <circle cx="700" cy="80" r="120" fill="url(#grad2)" opacity="0.3"/>
  <circle cx="100" cy="350" r="100" fill="url(#grad2)" opacity="0.2"/>
  
  <!-- Leadership crown symbol -->
  <g transform="translate(300, 100)">
    <path d="M20 150 L60 50 L100 90 L140 50 L180 150 Z" fill="white" opacity="0.9"/>
    <rect x="20" y="150" width="160" height="40" rx="8" fill="white" opacity="0.9"/>
    <circle cx="60" cy="50" r="15" fill="#fbbf24"/>
    <circle cx="100" cy="90" r="15" fill="#fbbf24"/>
    <circle cx="140" cy="50" r="15" fill="#fbbf24"/>
  </g>
  
  <!-- Stars decoration -->
  <path d="M150 80 L155 95 L170 95 L158 105 L163 120 L150 110 L137 120 L142 105 L130 95 L145 95 Z" fill="#fbbf24"/>
  <path d="M650 280 L653 290 L663 290 L655 297 L658 307 L650 300 L642 307 L645 297 L637 290 L647 290 Z" fill="#fbbf24"/>
  <path d="M550 60 L552 67 L560 67 L554 72 L556 80 L550 75 L544 80 L546 72 L540 67 L548 67 Z" fill="white" opacity="0.6"/>
  
  <!-- Text placeholder bars -->
  <rect x="50" y="320" width="200" height="12" rx="6" fill="white" opacity="0.3"/>
  <rect x="50" y="345" width="150" height="8" rx="4" fill="white" opacity="0.2"/>
</svg>